<?xml version="1.0" encoding="UTF-8" standalone="no"?>
<!-- Created with Inkscape (http://www.inkscape.org/) -->

<svg
   xmlns:dc="http://purl.org/dc/elements/1.1/"
   xmlns:cc="http://creativecommons.org/ns#"
   xmlns:rdf="http://www.w3.org/1999/02/22-rdf-syntax-ns#"
   xmlns:svg="http://www.w3.org/2000/svg"
   xmlns="http://www.w3.org/2000/svg"
   xmlns:sodipodi="http://sodipodi.sourceforge.net/DTD/sodipodi-0.dtd"
   xmlns:inkscape="http://www.inkscape.org/namespaces/inkscape"
   width="744.09448819"
   height="1052.3622047"
   id="svg2"
   version="1.1"
   inkscape:version="0.48.4 r9939"
   sodipodi:docname="New document 1">
  <defs
     id="defs4" />
  <sodipodi:namedview
     id="base"
     pagecolor="#ffffff"
     bordercolor="#666666"
     borderopacity="1.0"
     inkscape:pageopacity="0.0"
     inkscape:pageshadow="2"
     inkscape:zoom="1.979899"
     inkscape:cx="224.924"
     inkscape:cy="703.55091"
     inkscape:document-units="px"
     inkscape:current-layer="layer1"
     showgrid="false"
     inkscape:window-width="2560"
     inkscape:window-height="1030"
     inkscape:window-x="0"
     inkscape:window-y="25"
     inkscape:window-maximized="1" />
  <metadata
     id="metadata7">
    <rdf:RDF>
      <cc:Work
         rdf:about="">
        <dc:format>image/svg+xml</dc:format>
        <dc:type
           rdf:resource="http://purl.org/dc/dcmitype/StillImage" />
        <dc:title></dc:title>
      </cc:Work>
    </rdf:RDF>
  </metadata>
  <g
     inkscape:label="Layer 1"
     inkscape:groupmode="layer"
     id="layer1">
    <g
       id="g3758">
      <path
         sodipodi:nodetypes="aaaaaaaaaaaa"
         inkscape:connector-curvature="0"
         id="path2985"
         d="m 215.16248,342.47748 c 3.16472,14.50503 5.80149,32.67248 -3.27906,44.41791 -8.72509,11.28565 -27.52323,7.89494 -40.51072,13.79565 -12.00776,5.45558 -21.07089,20.45746 -34.24451,19.82073 -21.21013,-1.02516 -37.177222,-21.68349 -51.800542,-37.08086 -11.16417,-11.75512 -26.56781,-24.74511 -26.23374,-40.95343 0.36737,-17.82388 18.16792,-31.10888 30.67973,-43.8085 13.668692,-13.87387 28.096732,-31.31825 47.354552,-34.22579 9.83579,-1.485 18.70613,6.82145 28.26871,9.56098 12.19463,3.49358 29.32362,-1.32503 37.03703,8.74559 7.02036,9.16577 -3.79435,23.39302 -1.09684,34.61889 2.23234,9.29005 11.7887,15.77394 13.82539,25.10883 z"
         style="fill:#00ccff;fill-opacity:1;stroke:#ffffff;stroke-width:2;stroke-miterlimit:4;stroke-opacity:1" />
      <path
         transform="translate(-317.1879,23.233508)"
         d="m 512.14734,318.73889 a 55.305851,55.305851 0 1 1 -110.6117,0 55.305851,55.305851 0 1 1 110.6117,0 z"
         sodipodi:ry="55.305851"
         sodipodi:rx="55.305851"
         sodipodi:cy="318.73889"
         sodipodi:cx="456.84149"
         id="path2988"
         style="fill:#00aad4;fill-opacity:1;stroke:none"
         sodipodi:type="arc" />
    </g>
    <g
       id="g3801">
      <path
         sodipodi:nodetypes="aaaaaaaaaaaa"
         inkscape:connector-curvature="0"
         id="path2985-5"
         d="m 420.51608,341.29311 c 3.16472,14.50503 5.80149,32.67248 -3.27906,44.41791 -8.72509,11.28565 -27.52323,7.89494 -40.51072,13.79565 -12.00776,5.45558 -21.07089,20.45746 -34.24451,19.82073 -21.21013,-1.02516 -37.17722,-21.68349 -51.80054,-37.08086 -11.16417,-11.75512 -26.56781,-24.74511 -26.23374,-40.95343 0.36737,-17.82388 18.16792,-31.10888 30.67973,-43.8085 13.66869,-13.87387 28.09673,-31.31825 47.35455,-34.22579 9.83579,-1.485 18.70613,6.82145 28.26871,9.56098 12.19463,3.49358 29.32362,-1.32503 37.03703,8.74559 7.02036,9.16577 -3.79435,23.39302 -1.09684,34.61889 2.23234,9.29005 11.7887,15.77394 13.82539,25.10883 z"
         style="fill:#aa0000;fill-opacity:1;stroke:#ffffff;stroke-width:2;stroke-miterlimit:4;stroke-opacity:1" />
      <path
         transform="translate(-111.8343,22.049134)"
         d="m 512.14734,318.73889 a 55.305851,55.305851 0 1 1 -110.6117,0 55.305851,55.305851 0 1 1 110.6117,0 z"
         sodipodi:ry="55.305851"
         sodipodi:rx="55.305851"
         sodipodi:cy="318.73889"
         sodipodi:cx="456.84149"
         id="path2988-6"
         style="fill:#800000;fill-opacity:1;stroke:none"
         sodipodi:type="arc" />
    </g>
    <path
       style="fill:#212121;fill-opacity:1;stroke:#ffffff;stroke-width:2;stroke-miterlimit:4;stroke-opacity:1"
       d="m 675.07453,335.23219 c 3.16472,14.50503 5.80149,32.67248 -3.27906,44.41791 -8.72509,11.28565 -27.52323,7.89494 -40.51072,13.79565 -12.00776,5.45558 -21.07089,20.45746 -34.24451,19.82073 -21.21013,-1.02516 -37.17722,-21.68349 -51.80054,-37.08086 -11.16417,-11.75512 -26.56781,-24.74511 -26.23374,-40.95343 0.36737,-17.82388 18.16792,-31.10888 30.67973,-43.8085 13.66869,-13.87387 28.09673,-31.31825 47.35455,-34.22579 9.83579,-1.485 18.70613,6.82145 28.26871,9.56098 12.19463,3.49358 29.32362,-1.32503 37.03703,8.74559 7.02036,9.16577 -3.79435,23.39302 -1.09684,34.61889 2.23234,9.29005 11.7887,15.77394 13.82539,25.10883 z"
       id="path2985-55"
       inkscape:connector-curvature="0"
       sodipodi:nodetypes="aaaaaaaaaaaa" />
    <path
       sodipodi:type="arc"
       style="fill:#000000;fill-opacity:1;stroke:none"
       id="path2988-4"
       sodipodi:cx="456.84149"
       sodipodi:cy="318.73889"
       sodipodi:rx="55.305851"
       sodipodi:ry="55.305851"
       d="m 512.14734,318.73889 a 55.305851,55.305851 0 1 1 -110.6117,0 55.305851,55.305851 0 1 1 110.6117,0 z"
       transform="translate(142.72415,15.988218)" />
    <path
       style="fill:#aaeeff;fill-opacity:1;stroke:none"
       d="m 147.32143,272.89791 c 0,1.77521 -7.51516,-0.73564 -10.17858,-0.89286 -3.0252,-0.17857 -11.07142,2.48949 -11.07142,0.71428 0,-1.7752 8.04765,-3.99968 11.60713,-4.10713 4.45532,-0.1345 9.64287,2.51051 9.64287,4.28571 z"
       id="path3811"
       inkscape:connector-curvature="0"
       sodipodi:nodetypes="sssss" />
    <path
       sodipodi:type="arc"
       style="fill:#ffffff;fill-opacity:1;stroke:none"
       id="path3813"
       sodipodi:cx="190.35524"
       sodipodi:cy="281.73718"
       sodipodi:rx="3.0338137"
       sodipodi:ry="1.875"
       d="m 193.38905,281.73718 a 3.0338137,1.875 0 1 1 -6.06762,0 3.0338137,1.875 0 1 1 6.06762,0 z" />
    <path
       sodipodi:type="arc"
       style="fill:#ffffff;fill-opacity:1;stroke:none"
       id="path3815"
       sodipodi:cx="70.98214"
       sodipodi:cy="324.77289"
       sodipodi:rx="0.98214287"
       sodipodi:ry="2.9464285"
       d="m 71.964282,324.77289 a 0.98214287,2.9464285 0 1 1 -1.964285,0 0.98214287,2.9464285 0 1 1 1.964285,0 z" />
    <path
       sodipodi:type="arc"
       style="fill:#ffffff;fill-opacity:1;stroke:none"
       id="path3817"
       sodipodi:cx="211.07143"
       sodipodi:cy="347.00504"
       sodipodi:rx="2.5"
       sodipodi:ry="10"
       d="m 213.57143,347.00504 a 2.5,10 0 1 1 -5,0 2.5,10 0 1 1 5,0 z" />
    <path
       sodipodi:type="arc"
       style="fill:#ffffff;fill-opacity:1;stroke:none"
       id="path3819"
       sodipodi:cx="137.05357"
       sodipodi:cy="402.63004"
       sodipodi:rx="14.732142"
       sodipodi:ry="0.44642857"
       d="m 151.78572,402.63004 a 14.732142,0.44642857 0 1 1 -29.46429,0 14.732142,0.44642857 0 1 1 29.46429,0 z" />
  </g>
</svg>
